# This file uses centimeters as units for non-parametric coordinates.

mtllib Walls.mtl
g default
v -0.500000 1.414032 0.522176
v 0.500000 1.414032 0.522176
v -0.500000 1.414032 -0.477824
v 0.500000 1.414032 -0.477824
v -0.500000 1.429484 0.522176
v 0.500000 1.429484 0.522176
v 0.500000 1.429484 -0.477824
v -0.500000 1.429484 -0.477824
v -0.500000 1.429484 0.522176
v 0.500000 1.429484 0.522176
v 0.500000 1.429484 -0.477824
v -0.500000 1.429484 -0.477824
v -0.078929 1.415076 0.101105
v -0.078929 1.415076 -0.056752
v 0.078929 1.415076 -0.056752
v 0.078929 1.415076 0.101105
v -0.078929 1.411645 0.101105
v -0.077091 1.404787 0.099267
v -0.072070 1.399766 0.094246
v -0.065212 1.397928 0.087388
v -0.065212 1.397928 -0.043035
v -0.072070 1.399766 -0.049894
v -0.077091 1.404787 -0.054915
v -0.078929 1.411645 -0.056752
v 0.065212 1.397928 -0.043035
v 0.072070 1.399766 -0.049894
v 0.077091 1.404787 -0.054915
v 0.078929 1.411645 -0.056752
v 0.065212 1.397928 0.087388
v 0.072070 1.399766 0.094246
v 0.077091 1.404787 0.099267
v 0.078929 1.411645 0.101105
vt 0.066736 0.712692
vt 0.067630 0.482620
vt 0.298772 0.471856
vt 0.310924 0.716154
vt 0.069245 0.714841
vt 0.065162 0.950540
vt 0.067628 0.482616
vt 0.066733 0.712696
vt 0.298828 0.956759
vt 0.298775 0.471854
vt 0.308362 0.718328
vt 0.310925 0.716155
vt 0.378169 0.361787
vt 0.668787 0.361354
vt 0.377743 0.071152
vt 0.668367 0.070744
vt 0.632843 0.325169
vt 0.644688 0.336950
vt 0.402569 0.337681
vt 0.414350 0.325832
vt 0.655722 0.348027
vt 0.391492 0.348717
vt 0.664877 0.357480
vt 0.382040 0.357875
vt 0.413685 0.107340
vt 0.632179 0.106684
vt 0.381653 0.075026
vt 0.664493 0.074653
vt 0.390807 0.084480
vt 0.401840 0.095558
vt 0.655038 0.083807
vt 0.643961 0.094839
vt 0.168254 0.814403
vt 0.165987 0.850117
vt 0.201811 0.852046
vt 0.204594 0.816261
vt 0.298005 0.468272
vt 0.067930 0.478947
vt 0.302511 0.956945
vt 0.061492 0.950557
vn 0.000000 1.000000 0.000000
vn 0.000000 1.000000 0.000000
vn 0.000000 1.000000 0.000000
vn 0.000000 1.000000 0.000000
vn 0.000000 0.000000 1.000000
vn 0.000000 0.000000 1.000000
vn 0.000000 0.000000 1.000000
vn 0.000000 0.000000 1.000000
vn 1.000000 0.000000 0.000000
vn 1.000000 0.000000 0.000000
vn 1.000000 0.000000 0.000000
vn 1.000000 0.000000 0.000000
vn 0.000000 0.000000 -1.000000
vn 0.000000 0.000000 -1.000000
vn 0.000000 0.000000 -1.000000
vn 0.000000 0.000000 -1.000000
vn -1.000000 0.000000 0.000000
vn -1.000000 0.000000 0.000000
vn -1.000000 0.000000 0.000000
vn -1.000000 0.000000 0.000000
vn 0.000000 0.000000 0.000000
vn 0.000000 0.000000 0.000000
vn 0.000000 0.000000 0.000000
vn 0.000000 0.000000 0.000000
vn 0.000000 0.000000 0.000000
vn 0.000000 0.000000 0.000000
vn 0.000000 0.000000 0.000000
vn 0.000000 0.000000 0.000000
vn 0.000000 0.000000 0.000000
vn 0.000000 0.000000 0.000000
vn 0.000000 0.000000 0.000000
vn 0.000000 0.000000 0.000000
vn 0.000000 0.000000 0.000000
vn 0.000000 0.000000 0.000000
vn 0.000000 0.000000 0.000000
vn 0.000000 0.000000 0.000000
vn 0.002481 -0.999997 0.000000
vn 0.002481 -0.999997 0.000000
vn 0.002481 -0.999997 0.000000
vn 0.002481 -0.999997 0.000000
vn 0.000000 -0.999997 0.002480
vn 0.000000 -0.999997 0.002480
vn 0.000000 -0.999997 0.002480
vn 0.000000 -0.999997 0.002480
vn -0.002481 -0.999997 0.000000
vn -0.002481 -0.999997 0.000000
vn -0.002481 -0.999997 0.000000
vn -0.002481 -0.999997 0.000000
vn 0.000000 -0.999997 -0.002480
vn 0.000000 -0.999997 -0.002480
vn 0.000000 -0.999997 -0.002480
vn 0.000000 -0.999997 -0.002480
vn -0.018952 -0.999641 0.018951
vn -0.337722 -0.878573 0.337718
vn -0.337722 -0.878573 -0.337718
vn -0.018952 -0.999641 -0.018951
vn -0.907002 -0.421127 0.000000
vn -0.907002 -0.421127 0.000000
vn -0.986323 -0.164823 0.000000
vn -0.986323 -0.164823 0.000000
vn 0.018952 -0.999641 -0.018951
vn 0.018952 -0.999641 0.018951
vn -1.000000 0.000000 0.000000
vn -1.000000 0.000000 0.000000
vn 0.000000 0.000000 -1.000000
vn 0.000000 0.000000 -1.000000
vn 0.000000 -0.164819 -0.986324
vn 0.000000 -0.164819 -0.986324
vn 1.000000 0.000000 0.000000
vn 1.000000 0.000000 0.000000
vn 0.986323 -0.164821 0.000000
vn 0.986323 -0.164821 0.000000
vn 0.000000 0.000000 1.000000
vn 0.000000 0.000000 1.000000
vn 0.000000 -0.164819 0.986324
vn 0.000000 -0.164819 0.986324
vn 0.000000 -0.421123 -0.907004
vn 0.000000 -0.421123 -0.907004
vn 0.337716 -0.878575 -0.337719
vn 0.907003 -0.421124 0.000000
vn 0.907003 -0.421124 0.000000
vn 0.337716 -0.878575 0.337719
vn -0.000000 -0.421124 0.907003
vn -0.000000 -0.421123 0.907003
s off
g pPlane4
usemtl initialShadingGroup
f 9/1/1 10/2/2 11/3/3 12/4/4
f 1/5/5 2/6/6 6/40/7 5/8/8
f 2/38/9 4/37/10 7/10/11 6/7/12
f 4/9/13 3/11/14 8/12/15 7/39/16
f 3/11/17 1/5/18 5/8/19 8/12/20
f 5/8/21 6/7/22 10/2/23 9/1/24
f 6/7/25 7/10/26 11/3/27 10/2/28
f 7/10/29 8/12/30 12/4/31 11/3/32
f 8/12/33 5/8/34 9/1/35 12/4/36
f 1/5/37 3/11/38 14/36/39 13/33/40
f 3/11/41 4/9/42 15/35/43 14/36/44
f 4/9/45 2/6/46 16/34/47 15/35/48
f 2/6/49 1/5/50 13/33/51 16/34/52
s 1
f 20/17/53 19/18/54 22/19/55 21/20/56
f 19/18/54 18/21/57 23/22/58 22/19/55
f 18/21/57 17/23/59 24/24/60 23/22/58
f 20/17/53 21/20/56 25/25/61 29/26/62
f 13/14/63 14/13/64 24/24/60 17/23/59
f 14/13/65 15/15/66 28/27/67 24/24/68
f 15/15/69 16/16/70 32/28/71 28/27/72
f 16/16/73 13/14/74 17/23/75 32/28/76
f 23/22/77 24/24/68 28/27/67 27/29/78
f 21/20/56 22/19/55 26/30/79 25/25/61
f 22/19/55 23/22/77 27/29/78 26/30/79
f 27/29/80 28/27/72 32/28/71 31/31/81
f 25/25/61 26/30/79 30/32/82 29/26/62
f 26/30/79 27/29/80 31/31/81 30/32/82
f 17/23/75 18/21/83 31/31/84 32/28/76
f 18/21/83 19/18/54 30/32/82 31/31/84
f 19/18/54 20/17/53 29/26/62 30/32/82
g default
v -0.575725 0.312415 0.524290
v -0.575725 0.312415 -0.475710
v -0.575725 1.080342 0.524290
v -0.575725 1.080342 -0.475710
v -0.560273 0.312415 0.524290
v -0.560273 0.312415 -0.475710
v -0.560273 1.080342 -0.475710
v -0.560273 1.080342 0.524290
v -0.560273 0.312415 0.524290
v -0.560273 0.312415 -0.475710
v -0.560273 1.080342 -0.475710
v -0.560273 1.080342 0.524290
vt 0.354537 0.701995
vt 0.654438 0.706693
vt 0.599738 0.898251
vt 0.349932 0.890879
vt 0.351873 0.699024
vt 0.346768 0.893831
vt 0.602291 0.901821
vt 0.657419 0.703625
vt 0.654441 0.706690
vt 0.354536 0.701994
vt 0.599698 0.898395
vt 0.349929 0.890900
vt 0.341851 0.482350
vt 0.639130 0.474485
vn 1.000000 0.000000 0.000000
vn 1.000000 0.000000 0.000000
vn 1.000000 0.000000 0.000000
vn 1.000000 0.000000 0.000000
vn -1.000000 0.000000 0.000000
vn -1.000000 0.000000 0.000000
vn -1.000000 0.000000 0.000000
vn -1.000000 0.000000 0.000000
vn 0.000000 -1.000000 0.000000
vn 0.000000 -1.000000 0.000000
vn 0.000000 -1.000000 0.000000
vn 0.000000 -1.000000 0.000000
vn 0.000000 0.000000 -1.000000
vn 0.000000 0.000000 -1.000000
vn 0.000000 0.000000 -1.000000
vn 0.000000 0.000000 -1.000000
vn 0.000000 1.000000 0.000000
vn 0.000000 1.000000 0.000000
vn 0.000000 1.000000 0.000000
vn 0.000000 1.000000 0.000000
vn 0.000000 0.000000 1.000000
vn 0.000000 0.000000 1.000000
vn 0.000000 0.000000 1.000000
vn 0.000000 0.000000 1.000000
vn 0.000000 0.000000 0.000000
vn 0.000000 0.000000 0.000000
vn 0.000000 0.000000 0.000000
vn 0.000000 0.000000 0.000000
vn 0.000000 0.000000 0.000000
vn 0.000000 0.000000 0.000000
vn 0.000000 0.000000 0.000000
vn 0.000000 0.000000 0.000000
vn 0.000000 0.000000 0.000000
vn 0.000000 0.000000 0.000000
vn 0.000000 0.000000 0.000000
vn 0.000000 0.000000 0.000000
vn 0.000000 0.000000 0.000000
vn 0.000000 0.000000 0.000000
vn 0.000000 0.000000 0.000000
vn 0.000000 0.000000 0.000000
s off
g pPlane5
usemtl initialShadingGroup
f 41/41/85 42/42/86 43/43/87 44/44/88
f 33/45/89 35/53/90 36/54/91 34/48/92
f 33/45/93 34/48/94 38/49/95 37/50/96
f 34/48/97 36/47/98 39/51/99 38/49/100
f 36/47/101 35/46/102 40/52/103 39/51/104
f 35/46/105 33/45/106 37/50/107 40/52/108
f 37/50/109 38/49/110 42/42/111 41/41/112
f 38/49/113 39/51/114 43/43/115 42/42/116
f 39/51/117 40/52/118 44/44/119 43/43/120
f 40/52/121 37/50/122 41/41/123 44/44/124
g default
v -0.500000 0.086580 0.522176
v 0.500000 0.086580 0.522176
v -0.500000 0.086580 -0.477824
v 0.500000 0.086580 -0.477824
v -0.500000 0.102032 0.522176
v 0.500000 0.102032 0.522176
v 0.500000 0.102032 -0.477824
v -0.500000 0.102032 -0.477824
v -0.500000 0.102032 0.522176
v 0.500000 0.102032 0.522176
v 0.500000 0.102032 -0.477824
v -0.500000 0.102032 -0.477824
vt 0.745072 0.678599
vt 0.748200 0.478975
vt 0.956302 0.474516
vt 0.969507 0.733406
vt 0.742674 0.680545
vt 0.971254 0.736661
vt 0.958311 0.471816
vt 0.745194 0.477370
vt 0.748188 0.478959
vt 0.745064 0.678601
vt 0.956323 0.474496
vt 0.969511 0.733446
vt 0.862536 0.960535
vt 0.647300 0.873799
vn 0.000000 1.000000 0.000000
vn 0.000000 1.000000 0.000000
vn 0.000000 1.000000 0.000000
vn 0.000000 1.000000 0.000000
vn 0.000000 -1.000000 0.000000
vn 0.000000 -1.000000 0.000000
vn 0.000000 -1.000000 0.000000
vn 0.000000 -1.000000 0.000000
vn 0.000000 0.000000 1.000000
vn 0.000000 0.000000 1.000000
vn 0.000000 0.000000 1.000000
vn 0.000000 0.000000 1.000000
vn 1.000000 0.000000 0.000000
vn 1.000000 0.000000 0.000000
vn 1.000000 0.000000 0.000000
vn 1.000000 0.000000 0.000000
vn 0.000000 0.000000 -1.000000
vn 0.000000 0.000000 -1.000000
vn 0.000000 0.000000 -1.000000
vn 0.000000 0.000000 -1.000000
vn -1.000000 0.000000 0.000000
vn -1.000000 0.000000 0.000000
vn -1.000000 0.000000 0.000000
vn -1.000000 0.000000 0.000000
vn 0.000000 0.000000 0.000000
vn 0.000000 0.000000 0.000000
vn 0.000000 0.000000 0.000000
vn 0.000000 0.000000 0.000000
vn 0.000000 0.000000 0.000000
vn 0.000000 0.000000 0.000000
vn 0.000000 0.000000 0.000000
vn 0.000000 0.000000 0.000000
vn 0.000000 0.000000 0.000000
vn 0.000000 0.000000 0.000000
vn 0.000000 0.000000 0.000000
vn 0.000000 0.000000 0.000000
vn 0.000000 0.000000 0.000000
vn 0.000000 0.000000 0.000000
vn 0.000000 0.000000 0.000000
vn 0.000000 0.000000 0.000000
s off
g pPlane1
usemtl initialShadingGroup
f 53/55/125 54/56/126 55/57/127 56/58/128
f 45/59/129 47/60/130 48/67/131 46/68/132
f 45/59/133 46/62/134 50/63/135 49/64/136
f 46/62/137 48/61/138 51/65/139 50/63/140
f 48/61/141 47/60/142 52/66/143 51/65/144
f 47/60/145 45/59/146 49/64/147 52/66/148
f 49/64/149 50/63/150 54/56/151 53/55/152
f 50/63/153 51/65/154 55/57/155 54/56/156
f 51/65/157 52/66/158 56/58/159 55/57/160
f 52/66/161 49/64/162 53/55/163 56/58/164
